<svg width="628" height="64" viewBox="0 0 628 64" fill="none" xmlns="http://www.w3.org/2000/svg">
<path fill-rule="evenodd" clip-rule="evenodd" d="M90.1429 14.4314C90.1429 13.8631 89.9172 13.3181 89.5153 12.9162C89.1134 12.5143 88.5684 12.2886 88.0001 12.2886C87.4317 12.2886 86.8867 12.5143 86.4848 12.9162C86.083 13.3181 85.8572 13.8631 85.8572 14.4314V49.5714C85.8572 50.1398 86.083 50.6848 86.4848 51.0867C86.8867 51.4885 87.4317 51.7143 88.0001 51.7143C88.5684 51.7143 89.1134 51.4885 89.5153 51.0867C89.9172 50.6848 90.1429 50.1398 90.1429 49.5714V14.4314ZM79.4286 19.0457C79.997 19.0457 80.542 19.2715 80.9439 19.6733C81.3457 20.0752 81.5715 20.6203 81.5715 21.1886V42.8114C81.5715 43.3798 81.3457 43.9248 80.9439 44.3267C80.542 44.7285 79.997 44.9543 79.4286 44.9543C78.8603 44.9543 78.3153 44.7285 77.9134 44.3267C77.5115 43.9248 77.2858 43.3798 77.2858 42.8114V21.1886C77.2858 20.6203 77.5115 20.0752 77.9134 19.6733C78.3153 19.2715 78.8603 19.0457 79.4286 19.0457ZM70.8572 25.8029C71.4255 25.8029 71.9706 26.0286 72.3724 26.4305C72.7743 26.8324 73.0001 27.3774 73.0001 27.9457V36.0571C73.0001 36.6255 72.7743 37.1705 72.3724 37.5724C71.9706 37.9742 71.4255 38.2 70.8572 38.2C70.2889 38.2 69.7438 37.9742 69.342 37.5724C68.9401 37.1705 68.7144 36.6255 68.7144 36.0571V27.9457C68.7144 27.3774 68.9401 26.8324 69.342 26.4305C69.7438 26.0286 70.2889 25.8029 70.8572 25.8029ZM96.5715 19.0457C97.1398 19.0457 97.6849 19.2715 98.0867 19.6733C98.4886 20.0752 98.7144 20.6203 98.7144 21.1886V42.8114C98.7144 43.3798 98.4886 43.9248 98.0867 44.3267C97.6849 44.7285 97.1398 44.9543 96.5715 44.9543C96.0032 44.9543 95.4581 44.7285 95.0563 44.3267C94.6544 43.9248 94.4286 43.3798 94.4286 42.8114V21.1886C94.4286 20.6203 94.6544 20.0752 95.0563 19.6733C95.4581 19.2715 96.0032 19.0457 96.5715 19.0457ZM107.286 27.9457C107.286 27.3774 107.06 26.8324 106.658 26.4305C106.256 26.0286 105.711 25.8029 105.143 25.8029C104.575 25.8029 104.03 26.0286 103.628 26.4305C103.226 26.8324 103 27.3774 103 27.9457V36.0571C103 36.6255 103.226 37.1705 103.628 37.5724C104.03 37.9742 104.575 38.2 105.143 38.2C105.711 38.2 106.256 37.9742 106.658 37.5724C107.06 37.1705 107.286 36.6255 107.286 36.0571V27.9457Z" fill="white"/>
<path fill-rule="evenodd" clip-rule="evenodd" d="M130.143 14.4314C130.143 13.8631 129.917 13.3181 129.515 12.9162C129.113 12.5143 128.568 12.2886 128 12.2886C127.432 12.2886 126.887 12.5143 126.485 12.9162C126.083 13.3181 125.857 13.8631 125.857 14.4314V49.5714C125.857 50.1398 126.083 50.6848 126.485 51.0867C126.887 51.4885 127.432 51.7143 128 51.7143C128.568 51.7143 129.113 51.4885 129.515 51.0867C129.917 50.6848 130.143 50.1398 130.143 49.5714V14.4314ZM119.429 19.0457C119.997 19.0457 120.542 19.2715 120.944 19.6733C121.346 20.0752 121.571 20.6203 121.571 21.1886V42.8114C121.571 43.3798 121.346 43.9248 120.944 44.3267C120.542 44.7285 119.997 44.9543 119.429 44.9543C118.86 44.9543 118.315 44.7285 117.913 44.3267C117.512 43.9248 117.286 43.3798 117.286 42.8114V21.1886C117.286 20.6203 117.512 20.0752 117.913 19.6733C118.315 19.2715 118.86 19.0457 119.429 19.0457ZM110.857 25.8029C111.426 25.8029 111.971 26.0286 112.372 26.4305C112.774 26.8324 113 27.3774 113 27.9457V36.0571C113 36.6255 112.774 37.1705 112.372 37.5724C111.971 37.9742 111.426 38.2 110.857 38.2C110.289 38.2 109.744 37.9742 109.342 37.5724C108.94 37.1705 108.714 36.6255 108.714 36.0571V27.9457C108.714 27.3774 108.94 26.8324 109.342 26.4305C109.744 26.0286 110.289 25.8029 110.857 25.8029ZM136.571 19.0457C137.14 19.0457 137.685 19.2715 138.087 19.6733C138.489 20.0752 138.714 20.6203 138.714 21.1886V42.8114C138.714 43.3798 138.489 43.9248 138.087 44.3267C137.685 44.7285 137.14 44.9543 136.571 44.9543C136.003 44.9543 135.458 44.7285 135.056 44.3267C134.654 43.9248 134.429 43.3798 134.429 42.8114V21.1886C134.429 20.6203 134.654 20.0752 135.056 19.6733C135.458 19.2715 136.003 19.0457 136.571 19.0457ZM147.286 27.9457C147.286 27.3774 147.06 26.8324 146.658 26.4305C146.256 26.0286 145.711 25.8029 145.143 25.8029C144.575 25.8029 144.03 26.0286 143.628 26.4305C143.226 26.8324 143 27.3774 143 27.9457V36.0571C143 36.6255 143.226 37.1705 143.628 37.5724C144.03 37.9742 144.575 38.2 145.143 38.2C145.711 38.2 146.256 37.9742 146.658 37.5724C147.06 37.1705 147.286 36.6255 147.286 36.0571V27.9457Z" fill="white"/>
<path fill-rule="evenodd" clip-rule="evenodd" d="M170.143 14.4314C170.143 13.8631 169.917 13.3181 169.515 12.9162C169.113 12.5143 168.568 12.2886 168 12.2886C167.432 12.2886 166.887 12.5143 166.485 12.9162C166.083 13.3181 165.857 13.8631 165.857 14.4314V49.5714C165.857 50.1398 166.083 50.6848 166.485 51.0867C166.887 51.4885 167.432 51.7143 168 51.7143C168.568 51.7143 169.113 51.4885 169.515 51.0867C169.917 50.6848 170.143 50.1398 170.143 49.5714V14.4314ZM159.429 19.0457C159.997 19.0457 160.542 19.2715 160.944 19.6733C161.346 20.0752 161.571 20.6203 161.571 21.1886V42.8114C161.571 43.3798 161.346 43.9248 160.944 44.3267C160.542 44.7285 159.997 44.9543 159.429 44.9543C158.86 44.9543 158.315 44.7285 157.913 44.3267C157.512 43.9248 157.286 43.3798 157.286 42.8114V21.1886C157.286 20.6203 157.512 20.0752 157.913 19.6733C158.315 19.2715 158.86 19.0457 159.429 19.0457ZM150.857 25.8029C151.426 25.8029 151.971 26.0286 152.372 26.4305C152.774 26.8324 153 27.3774 153 27.9457V36.0571C153 36.6255 152.774 37.1705 152.372 37.5724C151.971 37.9742 151.426 38.2 150.857 38.2C150.289 38.2 149.744 37.9742 149.342 37.5724C148.94 37.1705 148.714 36.6255 148.714 36.0571V27.9457C148.714 27.3774 148.94 26.8324 149.342 26.4305C149.744 26.0286 150.289 25.8029 150.857 25.8029ZM176.571 19.0457C177.14 19.0457 177.685 19.2715 178.087 19.6733C178.489 20.0752 178.714 20.6203 178.714 21.1886V42.8114C178.714 43.3798 178.489 43.9248 178.087 44.3267C177.685 44.7285 177.14 44.9543 176.571 44.9543C176.003 44.9543 175.458 44.7285 175.056 44.3267C174.654 43.9248 174.429 43.3798 174.429 42.8114V21.1886C174.429 20.6203 174.654 20.0752 175.056 19.6733C175.458 19.2715 176.003 19.0457 176.571 19.0457ZM187.286 27.9457C187.286 27.3774 187.06 26.8324 186.658 26.4305C186.256 26.0286 185.711 25.8029 185.143 25.8029C184.575 25.8029 184.03 26.0286 183.628 26.4305C183.226 26.8324 183 27.3774 183 27.9457V36.0571C183 36.6255 183.226 37.1705 183.628 37.5724C184.03 37.9742 184.575 38.2 185.143 38.2C185.711 38.2 186.256 37.9742 186.658 37.5724C187.06 37.1705 187.286 36.6255 187.286 36.0571V27.9457Z" fill="white"/>
<path fill-rule="evenodd" clip-rule="evenodd" d="M210.143 14.4314C210.143 13.8631 209.917 13.3181 209.515 12.9162C209.113 12.5143 208.568 12.2886 208 12.2886C207.432 12.2886 206.887 12.5143 206.485 12.9162C206.083 13.3181 205.857 13.8631 205.857 14.4314V49.5714C205.857 50.1398 206.083 50.6848 206.485 51.0867C206.887 51.4885 207.432 51.7143 208 51.7143C208.568 51.7143 209.113 51.4885 209.515 51.0867C209.917 50.6848 210.143 50.1398 210.143 49.5714V14.4314ZM199.429 19.0457C199.997 19.0457 200.542 19.2715 200.944 19.6733C201.346 20.0752 201.571 20.6203 201.571 21.1886V42.8114C201.571 43.3798 201.346 43.9248 200.944 44.3267C200.542 44.7285 199.997 44.9543 199.429 44.9543C198.86 44.9543 198.315 44.7285 197.913 44.3267C197.512 43.9248 197.286 43.3798 197.286 42.8114V21.1886C197.286 20.6203 197.512 20.0752 197.913 19.6733C198.315 19.2715 198.86 19.0457 199.429 19.0457ZM190.857 25.8029C191.426 25.8029 191.971 26.0286 192.372 26.4305C192.774 26.8324 193 27.3774 193 27.9457V36.0571C193 36.6255 192.774 37.1705 192.372 37.5724C191.971 37.9742 191.426 38.2 190.857 38.2C190.289 38.2 189.744 37.9742 189.342 37.5724C188.94 37.1705 188.714 36.6255 188.714 36.0571V27.9457C188.714 27.3774 188.94 26.8324 189.342 26.4305C189.744 26.0286 190.289 25.8029 190.857 25.8029ZM216.571 19.0457C217.14 19.0457 217.685 19.2715 218.087 19.6733C218.489 20.0752 218.714 20.6203 218.714 21.1886V42.8114C218.714 43.3798 218.489 43.9248 218.087 44.3267C217.685 44.7285 217.14 44.9543 216.571 44.9543C216.003 44.9543 215.458 44.7285 215.056 44.3267C214.654 43.9248 214.429 43.3798 214.429 42.8114V21.1886C214.429 20.6203 214.654 20.0752 215.056 19.6733C215.458 19.2715 216.003 19.0457 216.571 19.0457ZM227.286 27.9457C227.286 27.3774 227.06 26.8324 226.658 26.4305C226.256 26.0286 225.711 25.8029 225.143 25.8029C224.575 25.8029 224.03 26.0286 223.628 26.4305C223.226 26.8324 223 27.3774 223 27.9457V36.0571C223 36.6255 223.226 37.1705 223.628 37.5724C224.03 37.9742 224.575 38.2 225.143 38.2C225.711 38.2 226.256 37.9742 226.658 37.5724C227.06 37.1705 227.286 36.6255 227.286 36.0571V27.9457Z" fill="white"/>
<path fill-rule="evenodd" clip-rule="evenodd" d="M250.143 14.4314C250.143 13.8631 249.917 13.3181 249.515 12.9162C249.113 12.5143 248.568 12.2886 248 12.2886C247.432 12.2886 246.887 12.5143 246.485 12.9162C246.083 13.3181 245.857 13.8631 245.857 14.4314V49.5714C245.857 50.1398 246.083 50.6848 246.485 51.0867C246.887 51.4885 247.432 51.7143 248 51.7143C248.568 51.7143 249.113 51.4885 249.515 51.0867C249.917 50.6848 250.143 50.1398 250.143 49.5714V14.4314ZM239.429 19.0457C239.997 19.0457 240.542 19.2715 240.944 19.6733C241.346 20.0752 241.571 20.6203 241.571 21.1886V42.8114C241.571 43.3798 241.346 43.9248 240.944 44.3267C240.542 44.7285 239.997 44.9543 239.429 44.9543C238.86 44.9543 238.315 44.7285 237.913 44.3267C237.512 43.9248 237.286 43.3798 237.286 42.8114V21.1886C237.286 20.6203 237.512 20.0752 237.913 19.6733C238.315 19.2715 238.86 19.0457 239.429 19.0457ZM230.857 25.8029C231.426 25.8029 231.971 26.0286 232.372 26.4305C232.774 26.8324 233 27.3774 233 27.9457V36.0571C233 36.6255 232.774 37.1705 232.372 37.5724C231.971 37.9742 231.426 38.2 230.857 38.2C230.289 38.2 229.744 37.9742 229.342 37.5724C228.94 37.1705 228.714 36.6255 228.714 36.0571V27.9457C228.714 27.3774 228.94 26.8324 229.342 26.4305C229.744 26.0286 230.289 25.8029 230.857 25.8029ZM256.571 19.0457C257.14 19.0457 257.685 19.2715 258.087 19.6733C258.489 20.0752 258.714 20.6203 258.714 21.1886V42.8114C258.714 43.3798 258.489 43.9248 258.087 44.3267C257.685 44.7285 257.14 44.9543 256.571 44.9543C256.003 44.9543 255.458 44.7285 255.056 44.3267C254.654 43.9248 254.429 43.3798 254.429 42.8114V21.1886C254.429 20.6203 254.654 20.0752 255.056 19.6733C255.458 19.2715 256.003 19.0457 256.571 19.0457ZM267.286 27.9457C267.286 27.3774 267.06 26.8324 266.658 26.4305C266.256 26.0286 265.711 25.8029 265.143 25.8029C264.575 25.8029 264.03 26.0286 263.628 26.4305C263.226 26.8324 263 27.3774 263 27.9457V36.0571C263 36.6255 263.226 37.1705 263.628 37.5724C264.03 37.9742 264.575 38.2 265.143 38.2C265.711 38.2 266.256 37.9742 266.658 37.5724C267.06 37.1705 267.286 36.6255 267.286 36.0571V27.9457Z" fill="white"/>
<path fill-rule="evenodd" clip-rule="evenodd" d="M290.143 14.4314C290.143 13.8631 289.917 13.3181 289.515 12.9162C289.113 12.5143 288.568 12.2886 288 12.2886C287.432 12.2886 286.887 12.5143 286.485 12.9162C286.083 13.3181 285.857 13.8631 285.857 14.4314V49.5714C285.857 50.1398 286.083 50.6848 286.485 51.0867C286.887 51.4885 287.432 51.7143 288 51.7143C288.568 51.7143 289.113 51.4885 289.515 51.0867C289.917 50.6848 290.143 50.1398 290.143 49.5714V14.4314ZM279.429 19.0457C279.997 19.0457 280.542 19.2715 280.944 19.6733C281.346 20.0752 281.571 20.6203 281.571 21.1886V42.8114C281.571 43.3798 281.346 43.9248 280.944 44.3267C280.542 44.7285 279.997 44.9543 279.429 44.9543C278.86 44.9543 278.315 44.7285 277.913 44.3267C277.512 43.9248 277.286 43.3798 277.286 42.8114V21.1886C277.286 20.6203 277.512 20.0752 277.913 19.6733C278.315 19.2715 278.86 19.0457 279.429 19.0457ZM270.857 25.8029C271.426 25.8029 271.971 26.0286 272.372 26.4305C272.774 26.8324 273 27.3774 273 27.9457V36.0571C273 36.6255 272.774 37.1705 272.372 37.5724C271.971 37.9742 271.426 38.2 270.857 38.2C270.289 38.2 269.744 37.9742 269.342 37.5724C268.94 37.1705 268.714 36.6255 268.714 36.0571V27.9457C268.714 27.3774 268.94 26.8324 269.342 26.4305C269.744 26.0286 270.289 25.8029 270.857 25.8029ZM296.571 19.0457C297.14 19.0457 297.685 19.2715 298.087 19.6733C298.489 20.0752 298.714 20.6203 298.714 21.1886V42.8114C298.714 43.3798 298.489 43.9248 298.087 44.3267C297.685 44.7285 297.14 44.9543 296.571 44.9543C296.003 44.9543 295.458 44.7285 295.056 44.3267C294.654 43.9248 294.429 43.3798 294.429 42.8114V21.1886C294.429 20.6203 294.654 20.0752 295.056 19.6733C295.458 19.2715 296.003 19.0457 296.571 19.0457ZM307.286 27.9457C307.286 27.3774 307.06 26.8324 306.658 26.4305C306.256 26.0286 305.711 25.8029 305.143 25.8029C304.575 25.8029 304.03 26.0286 303.628 26.4305C303.226 26.8324 303 27.3774 303 27.9457V36.0571C303 36.6255 303.226 37.1705 303.628 37.5724C304.03 37.9742 304.575 38.2 305.143 38.2C305.711 38.2 306.256 37.9742 306.658 37.5724C307.06 37.1705 307.286 36.6255 307.286 36.0571V27.9457Z" fill="white"/>
<path fill-rule="evenodd" clip-rule="evenodd" d="M330.143 14.4314C330.143 13.8631 329.917 13.3181 329.515 12.9162C329.113 12.5143 328.568 12.2886 328 12.2886C327.432 12.2886 326.887 12.5143 326.485 12.9162C326.083 13.3181 325.857 13.8631 325.857 14.4314V49.5714C325.857 50.1398 326.083 50.6848 326.485 51.0867C326.887 51.4885 327.432 51.7143 328 51.7143C328.568 51.7143 329.113 51.4885 329.515 51.0867C329.917 50.6848 330.143 50.1398 330.143 49.5714V14.4314ZM319.429 19.0457C319.997 19.0457 320.542 19.2715 320.944 19.6733C321.346 20.0752 321.571 20.6203 321.571 21.1886V42.8114C321.571 43.3798 321.346 43.9248 320.944 44.3267C320.542 44.7285 319.997 44.9543 319.429 44.9543C318.86 44.9543 318.315 44.7285 317.913 44.3267C317.512 43.9248 317.286 43.3798 317.286 42.8114V21.1886C317.286 20.6203 317.512 20.0752 317.913 19.6733C318.315 19.2715 318.86 19.0457 319.429 19.0457ZM310.857 25.8029C311.426 25.8029 311.971 26.0286 312.372 26.4305C312.774 26.8324 313 27.3774 313 27.9457V36.0571C313 36.6255 312.774 37.1705 312.372 37.5724C311.971 37.9742 311.426 38.2 310.857 38.2C310.289 38.2 309.744 37.9742 309.342 37.5724C308.94 37.1705 308.714 36.6255 308.714 36.0571V27.9457C308.714 27.3774 308.94 26.8324 309.342 26.4305C309.744 26.0286 310.289 25.8029 310.857 25.8029ZM336.571 19.0457C337.14 19.0457 337.685 19.2715 338.087 19.6733C338.489 20.0752 338.714 20.6203 338.714 21.1886V42.8114C338.714 43.3798 338.489 43.9248 338.087 44.3267C337.685 44.7285 337.14 44.9543 336.571 44.9543C336.003 44.9543 335.458 44.7285 335.056 44.3267C334.654 43.9248 334.429 43.3798 334.429 42.8114V21.1886C334.429 20.6203 334.654 20.0752 335.056 19.6733C335.458 19.2715 336.003 19.0457 336.571 19.0457ZM347.286 27.9457C347.286 27.3774 347.06 26.8324 346.658 26.4305C346.256 26.0286 345.711 25.8029 345.143 25.8029C344.575 25.8029 344.03 26.0286 343.628 26.4305C343.226 26.8324 343 27.3774 343 27.9457V36.0571C343 36.6255 343.226 37.1705 343.628 37.5724C344.03 37.9742 344.575 38.2 345.143 38.2C345.711 38.2 346.256 37.9742 346.658 37.5724C347.06 37.1705 347.286 36.6255 347.286 36.0571V27.9457Z" fill="white"/>
<path fill-rule="evenodd" clip-rule="evenodd" d="M370.143 14.4314C370.143 13.8631 369.917 13.3181 369.515 12.9162C369.113 12.5143 368.568 12.2886 368 12.2886C367.432 12.2886 366.887 12.5143 366.485 12.9162C366.083 13.3181 365.857 13.8631 365.857 14.4314V49.5714C365.857 50.1398 366.083 50.6848 366.485 51.0867C366.887 51.4885 367.432 51.7143 368 51.7143C368.568 51.7143 369.113 51.4885 369.515 51.0867C369.917 50.6848 370.143 50.1398 370.143 49.5714V14.4314ZM359.429 19.0457C359.997 19.0457 360.542 19.2715 360.944 19.6733C361.346 20.0752 361.571 20.6203 361.571 21.1886V42.8114C361.571 43.3798 361.346 43.9248 360.944 44.3267C360.542 44.7285 359.997 44.9543 359.429 44.9543C358.86 44.9543 358.315 44.7285 357.913 44.3267C357.512 43.9248 357.286 43.3798 357.286 42.8114V21.1886C357.286 20.6203 357.512 20.0752 357.913 19.6733C358.315 19.2715 358.86 19.0457 359.429 19.0457ZM350.857 25.8029C351.426 25.8029 351.971 26.0286 352.372 26.4305C352.774 26.8324 353 27.3774 353 27.9457V36.0571C353 36.6255 352.774 37.1705 352.372 37.5724C351.971 37.9742 351.426 38.2 350.857 38.2C350.289 38.2 349.744 37.9742 349.342 37.5724C348.94 37.1705 348.714 36.6255 348.714 36.0571V27.9457C348.714 27.3774 348.94 26.8324 349.342 26.4305C349.744 26.0286 350.289 25.8029 350.857 25.8029ZM376.571 19.0457C377.14 19.0457 377.685 19.2715 378.087 19.6733C378.489 20.0752 378.714 20.6203 378.714 21.1886V42.8114C378.714 43.3798 378.489 43.9248 378.087 44.3267C377.685 44.7285 377.14 44.9543 376.571 44.9543C376.003 44.9543 375.458 44.7285 375.056 44.3267C374.654 43.9248 374.429 43.3798 374.429 42.8114V21.1886C374.429 20.6203 374.654 20.0752 375.056 19.6733C375.458 19.2715 376.003 19.0457 376.571 19.0457ZM387.286 27.9457C387.286 27.3774 387.06 26.8324 386.658 26.4305C386.256 26.0286 385.711 25.8029 385.143 25.8029C384.575 25.8029 384.03 26.0286 383.628 26.4305C383.226 26.8324 383 27.3774 383 27.9457V36.0571C383 36.6255 383.226 37.1705 383.628 37.5724C384.03 37.9742 384.575 38.2 385.143 38.2C385.711 38.2 386.256 37.9742 386.658 37.5724C387.06 37.1705 387.286 36.6255 387.286 36.0571V27.9457Z" fill="white"/>
<path fill-rule="evenodd" clip-rule="evenodd" d="M410.143 14.4314C410.143 13.8631 409.917 13.3181 409.515 12.9162C409.113 12.5143 408.568 12.2886 408 12.2886C407.432 12.2886 406.887 12.5143 406.485 12.9162C406.083 13.3181 405.857 13.8631 405.857 14.4314V49.5714C405.857 50.1398 406.083 50.6848 406.485 51.0867C406.887 51.4885 407.432 51.7143 408 51.7143C408.568 51.7143 409.113 51.4885 409.515 51.0867C409.917 50.6848 410.143 50.1398 410.143 49.5714V14.4314ZM399.429 19.0457C399.997 19.0457 400.542 19.2715 400.944 19.6733C401.346 20.0752 401.571 20.6203 401.571 21.1886V42.8114C401.571 43.3798 401.346 43.9248 400.944 44.3267C400.542 44.7285 399.997 44.9543 399.429 44.9543C398.86 44.9543 398.315 44.7285 397.913 44.3267C397.512 43.9248 397.286 43.3798 397.286 42.8114V21.1886C397.286 20.6203 397.512 20.0752 397.913 19.6733C398.315 19.2715 398.86 19.0457 399.429 19.0457ZM390.857 25.8029C391.426 25.8029 391.971 26.0286 392.372 26.4305C392.774 26.8324 393 27.3774 393 27.9457V36.0571C393 36.6255 392.774 37.1705 392.372 37.5724C391.971 37.9742 391.426 38.2 390.857 38.2C390.289 38.2 389.744 37.9742 389.342 37.5724C388.94 37.1705 388.714 36.6255 388.714 36.0571V27.9457C388.714 27.3774 388.94 26.8324 389.342 26.4305C389.744 26.0286 390.289 25.8029 390.857 25.8029ZM416.571 19.0457C417.14 19.0457 417.685 19.2715 418.087 19.6733C418.489 20.0752 418.714 20.6203 418.714 21.1886V42.8114C418.714 43.3798 418.489 43.9248 418.087 44.3267C417.685 44.7285 417.14 44.9543 416.571 44.9543C416.003 44.9543 415.458 44.7285 415.056 44.3267C414.654 43.9248 414.429 43.3798 414.429 42.8114V21.1886C414.429 20.6203 414.654 20.0752 415.056 19.6733C415.458 19.2715 416.003 19.0457 416.571 19.0457ZM427.286 27.9457C427.286 27.3774 427.06 26.8324 426.658 26.4305C426.256 26.0286 425.711 25.8029 425.143 25.8029C424.575 25.8029 424.03 26.0286 423.628 26.4305C423.226 26.8324 423 27.3774 423 27.9457V36.0571C423 36.6255 423.226 37.1705 423.628 37.5724C424.03 37.9742 424.575 38.2 425.143 38.2C425.711 38.2 426.256 37.9742 426.658 37.5724C427.06 37.1705 427.286 36.6255 427.286 36.0571V27.9457Z" fill="white"/>
<path fill-rule="evenodd" clip-rule="evenodd" d="M450.143 14.4314C450.143 13.8631 449.917 13.3181 449.515 12.9162C449.113 12.5143 448.568 12.2886 448 12.2886C447.432 12.2886 446.887 12.5143 446.485 12.9162C446.083 13.3181 445.857 13.8631 445.857 14.4314V49.5714C445.857 50.1398 446.083 50.6848 446.485 51.0867C446.887 51.4885 447.432 51.7143 448 51.7143C448.568 51.7143 449.113 51.4885 449.515 51.0867C449.917 50.6848 450.143 50.1398 450.143 49.5714V14.4314ZM439.429 19.0457C439.997 19.0457 440.542 19.2715 440.944 19.6733C441.346 20.0752 441.571 20.6203 441.571 21.1886V42.8114C441.571 43.3798 441.346 43.9248 440.944 44.3267C440.542 44.7285 439.997 44.9543 439.429 44.9543C438.86 44.9543 438.315 44.7285 437.913 44.3267C437.512 43.9248 437.286 43.3798 437.286 42.8114V21.1886C437.286 20.6203 437.512 20.0752 437.913 19.6733C438.315 19.2715 438.86 19.0457 439.429 19.0457ZM430.857 25.8029C431.426 25.8029 431.971 26.0286 432.372 26.4305C432.774 26.8324 433 27.3774 433 27.9457V36.0571C433 36.6255 432.774 37.1705 432.372 37.5724C431.971 37.9742 431.426 38.2 430.857 38.2C430.289 38.2 429.744 37.9742 429.342 37.5724C428.94 37.1705 428.714 36.6255 428.714 36.0571V27.9457C428.714 27.3774 428.94 26.8324 429.342 26.4305C429.744 26.0286 430.289 25.8029 430.857 25.8029ZM456.571 19.0457C457.14 19.0457 457.685 19.2715 458.087 19.6733C458.489 20.0752 458.714 20.6203 458.714 21.1886V42.8114C458.714 43.3798 458.489 43.9248 458.087 44.3267C457.685 44.7285 457.14 44.9543 456.571 44.9543C456.003 44.9543 455.458 44.7285 455.056 44.3267C454.654 43.9248 454.429 43.3798 454.429 42.8114V21.1886C454.429 20.6203 454.654 20.0752 455.056 19.6733C455.458 19.2715 456.003 19.0457 456.571 19.0457ZM467.286 27.9457C467.286 27.3774 467.06 26.8324 466.658 26.4305C466.256 26.0286 465.711 25.8029 465.143 25.8029C464.575 25.8029 464.03 26.0286 463.628 26.4305C463.226 26.8324 463 27.3774 463 27.9457V36.0571C463 36.6255 463.226 37.1705 463.628 37.5724C464.03 37.9742 464.575 38.2 465.143 38.2C465.711 38.2 466.256 37.9742 466.658 37.5724C467.06 37.1705 467.286 36.6255 467.286 36.0571V27.9457Z" fill="white"/>
<path fill-rule="evenodd" clip-rule="evenodd" d="M490.143 14.4314C490.143 13.8631 489.917 13.3181 489.515 12.9162C489.113 12.5143 488.568 12.2886 488 12.2886C487.432 12.2886 486.887 12.5143 486.485 12.9162C486.083 13.3181 485.857 13.8631 485.857 14.4314V49.5714C485.857 50.1398 486.083 50.6848 486.485 51.0867C486.887 51.4885 487.432 51.7143 488 51.7143C488.568 51.7143 489.113 51.4885 489.515 51.0867C489.917 50.6848 490.143 50.1398 490.143 49.5714V14.4314ZM479.429 19.0457C479.997 19.0457 480.542 19.2715 480.944 19.6733C481.346 20.0752 481.571 20.6203 481.571 21.1886V42.8114C481.571 43.3798 481.346 43.9248 480.944 44.3267C480.542 44.7285 479.997 44.9543 479.429 44.9543C478.86 44.9543 478.315 44.7285 477.913 44.3267C477.512 43.9248 477.286 43.3798 477.286 42.8114V21.1886C477.286 20.6203 477.512 20.0752 477.913 19.6733C478.315 19.2715 478.86 19.0457 479.429 19.0457ZM470.857 25.8029C471.426 25.8029 471.971 26.0286 472.372 26.4305C472.774 26.8324 473 27.3774 473 27.9457V36.0571C473 36.6255 472.774 37.1705 472.372 37.5724C471.971 37.9742 471.426 38.2 470.857 38.2C470.289 38.2 469.744 37.9742 469.342 37.5724C468.94 37.1705 468.714 36.6255 468.714 36.0571V27.9457C468.714 27.3774 468.94 26.8324 469.342 26.4305C469.744 26.0286 470.289 25.8029 470.857 25.8029ZM496.571 19.0457C497.14 19.0457 497.685 19.2715 498.087 19.6733C498.489 20.0752 498.714 20.6203 498.714 21.1886V42.8114C498.714 43.3798 498.489 43.9248 498.087 44.3267C497.685 44.7285 497.14 44.9543 496.571 44.9543C496.003 44.9543 495.458 44.7285 495.056 44.3267C494.654 43.9248 494.429 43.3798 494.429 42.8114V21.1886C494.429 20.6203 494.654 20.0752 495.056 19.6733C495.458 19.2715 496.003 19.0457 496.571 19.0457ZM507.286 27.9457C507.286 27.3774 507.06 26.8324 506.658 26.4305C506.256 26.0286 505.711 25.8029 505.143 25.8029C504.575 25.8029 504.03 26.0286 503.628 26.4305C503.226 26.8324 503 27.3774 503 27.9457V36.0571C503 36.6255 503.226 37.1705 503.628 37.5724C504.03 37.9742 504.575 38.2 505.143 38.2C505.711 38.2 506.256 37.9742 506.658 37.5724C507.06 37.1705 507.286 36.6255 507.286 36.0571V27.9457Z" fill="white"/>
<path fill-rule="evenodd" clip-rule="evenodd" d="M530.143 14.4314C530.143 13.8631 529.917 13.3181 529.515 12.9162C529.113 12.5143 528.568 12.2886 528 12.2886C527.432 12.2886 526.887 12.5143 526.485 12.9162C526.083 13.3181 525.857 13.8631 525.857 14.4314V49.5714C525.857 50.1398 526.083 50.6848 526.485 51.0867C526.887 51.4885 527.432 51.7143 528 51.7143C528.568 51.7143 529.113 51.4885 529.515 51.0867C529.917 50.6848 530.143 50.1398 530.143 49.5714V14.4314ZM519.429 19.0457C519.997 19.0457 520.542 19.2715 520.944 19.6733C521.346 20.0752 521.571 20.6203 521.571 21.1886V42.8114C521.571 43.3798 521.346 43.9248 520.944 44.3267C520.542 44.7285 519.997 44.9543 519.429 44.9543C518.86 44.9543 518.315 44.7285 517.913 44.3267C517.512 43.9248 517.286 43.3798 517.286 42.8114V21.1886C517.286 20.6203 517.512 20.0752 517.913 19.6733C518.315 19.2715 518.86 19.0457 519.429 19.0457ZM510.857 25.8029C511.426 25.8029 511.971 26.0286 512.372 26.4305C512.774 26.8324 513 27.3774 513 27.9457V36.0571C513 36.6255 512.774 37.1705 512.372 37.5724C511.971 37.9742 511.426 38.2 510.857 38.2C510.289 38.2 509.744 37.9742 509.342 37.5724C508.94 37.1705 508.714 36.6255 508.714 36.0571V27.9457C508.714 27.3774 508.94 26.8324 509.342 26.4305C509.744 26.0286 510.289 25.8029 510.857 25.8029ZM536.571 19.0457C537.14 19.0457 537.685 19.2715 538.087 19.6733C538.489 20.0752 538.714 20.6203 538.714 21.1886V42.8114C538.714 43.3798 538.489 43.9248 538.087 44.3267C537.685 44.7285 537.14 44.9543 536.571 44.9543C536.003 44.9543 535.458 44.7285 535.056 44.3267C534.654 43.9248 534.429 43.3798 534.429 42.8114V21.1886C534.429 20.6203 534.654 20.0752 535.056 19.6733C535.458 19.2715 536.003 19.0457 536.571 19.0457ZM547.286 27.9457C547.286 27.3774 547.06 26.8324 546.658 26.4305C546.256 26.0286 545.711 25.8029 545.143 25.8029C544.575 25.8029 544.03 26.0286 543.628 26.4305C543.226 26.8324 543 27.3774 543 27.9457V36.0571C543 36.6255 543.226 37.1705 543.628 37.5724C544.03 37.9742 544.575 38.2 545.143 38.2C545.711 38.2 546.256 37.9742 546.658 37.5724C547.06 37.1705 547.286 36.6255 547.286 36.0571V27.9457Z" fill="white"/>
<path fill-rule="evenodd" clip-rule="evenodd" d="M570.143 14.4314C570.143 13.8631 569.917 13.3181 569.515 12.9162C569.113 12.5143 568.568 12.2886 568 12.2886C567.432 12.2886 566.887 12.5143 566.485 12.9162C566.083 13.3181 565.857 13.8631 565.857 14.4314V49.5714C565.857 50.1398 566.083 50.6848 566.485 51.0867C566.887 51.4885 567.432 51.7143 568 51.7143C568.568 51.7143 569.113 51.4885 569.515 51.0867C569.917 50.6848 570.143 50.1398 570.143 49.5714V14.4314ZM559.429 19.0457C559.997 19.0457 560.542 19.2715 560.944 19.6733C561.346 20.0752 561.571 20.6203 561.571 21.1886V42.8114C561.571 43.3798 561.346 43.9248 560.944 44.3267C560.542 44.7285 559.997 44.9543 559.429 44.9543C558.86 44.9543 558.315 44.7285 557.913 44.3267C557.512 43.9248 557.286 43.3798 557.286 42.8114V21.1886C557.286 20.6203 557.512 20.0752 557.913 19.6733C558.315 19.2715 558.86 19.0457 559.429 19.0457ZM550.857 25.8029C551.426 25.8029 551.971 26.0286 552.372 26.4305C552.774 26.8324 553 27.3774 553 27.9457V36.0571C553 36.6255 552.774 37.1705 552.372 37.5724C551.971 37.9742 551.426 38.2 550.857 38.2C550.289 38.2 549.744 37.9742 549.342 37.5724C548.94 37.1705 548.714 36.6255 548.714 36.0571V27.9457C548.714 27.3774 548.94 26.8324 549.342 26.4305C549.744 26.0286 550.289 25.8029 550.857 25.8029ZM576.571 19.0457C577.14 19.0457 577.685 19.2715 578.087 19.6733C578.489 20.0752 578.714 20.6203 578.714 21.1886V42.8114C578.714 43.3798 578.489 43.9248 578.087 44.3267C577.685 44.7285 577.14 44.9543 576.571 44.9543C576.003 44.9543 575.458 44.7285 575.056 44.3267C574.654 43.9248 574.429 43.3798 574.429 42.8114V21.1886C574.429 20.6203 574.654 20.0752 575.056 19.6733C575.458 19.2715 576.003 19.0457 576.571 19.0457ZM587.286 27.9457C587.286 27.3774 587.06 26.8324 586.658 26.4305C586.256 26.0286 585.711 25.8029 585.143 25.8029C584.575 25.8029 584.03 26.0286 583.628 26.4305C583.226 26.8324 583 27.3774 583 27.9457V36.0571C583 36.6255 583.226 37.1705 583.628 37.5724C584.03 37.9742 584.575 38.2 585.143 38.2C585.711 38.2 586.256 37.9742 586.658 37.5724C587.06 37.1705 587.286 36.6255 587.286 36.0571V27.9457Z" fill="white"/>
<path fill-rule="evenodd" clip-rule="evenodd" d="M610.143 14.4314C610.143 13.8631 609.917 13.3181 609.515 12.9162C609.113 12.5143 608.568 12.2886 608 12.2886C607.432 12.2886 606.887 12.5143 606.485 12.9162C606.083 13.3181 605.857 13.8631 605.857 14.4314V49.5714C605.857 50.1398 606.083 50.6848 606.485 51.0867C606.887 51.4885 607.432 51.7143 608 51.7143C608.568 51.7143 609.113 51.4885 609.515 51.0867C609.917 50.6848 610.143 50.1398 610.143 49.5714V14.4314ZM599.429 19.0457C599.997 19.0457 600.542 19.2715 600.944 19.6733C601.346 20.0752 601.571 20.6203 601.571 21.1886V42.8114C601.571 43.3798 601.346 43.9248 600.944 44.3267C600.542 44.7285 599.997 44.9543 599.429 44.9543C598.86 44.9543 598.315 44.7285 597.913 44.3267C597.512 43.9248 597.286 43.3798 597.286 42.8114V21.1886C597.286 20.6203 597.512 20.0752 597.913 19.6733C598.315 19.2715 598.86 19.0457 599.429 19.0457ZM590.857 25.8029C591.426 25.8029 591.971 26.0286 592.372 26.4305C592.774 26.8324 593 27.3774 593 27.9457V36.0571C593 36.6255 592.774 37.1705 592.372 37.5724C591.971 37.9742 591.426 38.2 590.857 38.2C590.289 38.2 589.744 37.9742 589.342 37.5724C588.94 37.1705 588.714 36.6255 588.714 36.0571V27.9457C588.714 27.3774 588.94 26.8324 589.342 26.4305C589.744 26.0286 590.289 25.8029 590.857 25.8029ZM616.571 19.0457C617.14 19.0457 617.685 19.2715 618.087 19.6733C618.489 20.0752 618.714 20.6203 618.714 21.1886V42.8114C618.714 43.3798 618.489 43.9248 618.087 44.3267C617.685 44.7285 617.14 44.9543 616.571 44.9543C616.003 44.9543 615.458 44.7285 615.056 44.3267C614.654 43.9248 614.429 43.3798 614.429 42.8114V21.1886C614.429 20.6203 614.654 20.0752 615.056 19.6733C615.458 19.2715 616.003 19.0457 616.571 19.0457ZM627.286 27.9457C627.286 27.3774 627.06 26.8324 626.658 26.4305C626.256 26.0286 625.711 25.8029 625.143 25.8029C624.575 25.8029 624.03 26.0286 623.628 26.4305C623.226 26.8324 623 27.3774 623 27.9457V36.0571C623 36.6255 623.226 37.1705 623.628 37.5724C624.03 37.9742 624.575 38.2 625.143 38.2C625.711 38.2 626.256 37.9742 626.658 37.5724C627.06 37.1705 627.286 36.6255 627.286 36.0571V27.9457Z" fill="white"/>
<path d="M21.3333 16L47.9999 32L21.3333 48V16Z" stroke="white" stroke-width="2" stroke-linecap="round" stroke-linejoin="round"/>
</svg>
