<svg width="341" height="88" viewBox="0 0 341 88" fill="none" xmlns="http://www.w3.org/2000/svg">
<path d="M25 79.3C20.4 79.3 16.0667 78.1333 12 75.8C7.6 73.0667 4.66667 69.6667 3.2 65.6C2.66667 64.1333 2.26667 62.8 2 61.6C1.73333 60.3333 1.6 59.2667 1.6 58.4C1.6 56.2667 2.36667 55.2 3.9 55.2C4.36667 55.2 4.63333 55.4333 4.7 55.9C5.03333 57.1667 5.33333 58.2333 5.6 59.1C5.86667 59.9667 6.1 60.6667 6.3 61.2C6.63333 62.1333 7.06667 63 7.6 63.8C8.13333 64.6 8.7 65.3667 9.3 66.1C12.4333 69.6333 16.6333 71.4 21.9 71.4C22.8333 71.4 23.9333 71.2 25.2 70.8C26.6 70.4 27.4 70.2 27.6 70.2C27.8 70.2667 27.9 70.3667 27.9 70.5C27.9 71.7 25.3667 72.3 20.3 72.3C13.1 72.3 8.36667 69.8333 6.1 64.9C10.1 73.8333 16.3667 78.3 24.9 78.3C25.1 78.3 25.3333 78.3 25.6 78.3C25.8667 78.3 26.1333 78.2667 26.4 78.2C26.5333 78.1333 26.7667 78.0333 27.1 77.9C27.5 77.7667 27.9667 77.6333 28.5 77.5C31.5667 76.5667 35.2 72.8667 39.4 66.4C40.9333 64.0667 42.3333 61.7 43.6 59.3C44.9333 56.9 46.1 54.4667 47.1 52C48.7667 48.2667 50.0667 44.6 51 41C50.3333 38 48.6667 36.5 46 36.5C45.5333 36.5 45.2333 36.5333 45.1 36.6C45.1 35.6 45.5 34.6667 46.3 33.8C47.1 32.8667 48.0333 32.4 49.1 32.4C50.9 32.4 51.8667 33.7333 52 36.4C52.6 33.6667 53.0333 30.9667 53.3 28.3C53.5667 25.6333 53.7 23.0667 53.7 20.6C53.7 20.0667 53.7 19.5 53.7 18.9C53.7 18.3 53.6667 17.7333 53.6 17.2C51.2667 16.6667 48.2667 16 44.6 15.2C40.9333 14.4 36.7 13.4667 31.9 12.4C28.7667 11.8 25.9 11.3333 23.3 11C20.7667 10.6667 18.4667 10.5 16.4 10.5C11.2667 10.5 7.4 11.5333 4.8 13.6C2.73333 15.2667 1.7 17.1333 1.7 19.2C1.7 22.8 4.23333 24.6 9.3 24.6C9.5 24.6 9.6 24.6333 9.6 24.7C9.6 24.9667 8.76667 25.1333 7.1 25.2C6.96667 25.2 6.83333 25.2667 6.7 25.4C6.56667 25.4667 6.4 25.5 6.2 25.5C5.73333 25.5 5.23333 25.3667 4.7 25.1C2.16667 24.2333 0.9 22.4667 0.9 19.8C0.9 19.0667 1 18.3 1.2 17.5C1.46667 16.7 1.86667 15.9333 2.4 15.2C6.2 9.53333 12.2333 6.7 20.5 6.7C22.1667 6.7 23.9333 6.8 25.8 7C27.7333 7.13333 29.8 7.46666 32 8L53.2 13C52.6 8.66667 51.1 5.03333 48.7 2.1C48.2333 1.63333 48 1.2 48 0.799995C48 0.266664 48.3 -9.53674e-07 48.9 -9.53674e-07C49.2333 -9.53674e-07 49.7333 0.266664 50.4 0.799995C52.9333 3.4 54.6 7.63333 55.4 13.5C59.0667 14.3 62.3 14.9 65.1 15.3L66.4 13.1C66.9333 12.2333 67.6 11.4667 68.4 10.8C69.2 10.0667 70.1 9.36666 71.1 8.69999C73.3 7.43333 75.3 6.79999 77.1 6.79999C78.0333 6.79999 79.1 7.1 80.3 7.7C81.5667 8.3 82.2 9.06666 82.2 10C82.2 10.7333 81.9 11.1 81.3 11.1C81.1667 11.1 80.6 10.6 79.6 9.59999C78.7333 8.53333 77.7333 8 76.6 8C74.2667 8 72.2 9.93333 70.4 13.8L69.5 15.7C70.3667 15.7667 71.2 15.8 72 15.8C72.8667 15.8 73.6333 15.8 74.3 15.8C78.9667 15.8 82.0333 15.0333 83.5 13.5C84.7 12.1 85.3 10.5333 85.3 8.8C85.3 7.86667 85.0333 7.03333 84.5 6.3C83.9667 5.5 83.7 5.1 83.7 5.1C83.7 4.76667 83.9 4.6 84.3 4.6C85.5 4.6 86.1 6 86.1 8.8C86.1 15.5333 80.4667 18.9 69.2 18.9H68.4L60.1 44.8C56.5 55.4667 52.4 63.4667 47.8 68.8C41.7333 75.8 34.1333 79.3 25 79.3ZM29.1 78C36.4333 76.9333 42.4333 72.7667 47.1 65.5C48.6333 63.0333 50.1333 59.8667 51.6 56C53.1333 52.0667 54.6333 47.4667 56.1 42.2C57.7667 36.0667 59.2 31.0333 60.4 27.1C61.6 23.1 62.6 20.2667 63.4 18.6C62.2 18.4667 60.9667 18.3333 59.7 18.2C58.4333 18.0667 57.1333 17.8667 55.8 17.6V19.7C55.8 24.7 55.2 29.9 54 35.3C52.8667 40.6333 51.1667 46.1667 48.9 51.9C43.5 65.1667 36.9 73.8667 29.1 78ZM76.8391 43.6C76.0391 43.6 75.3057 43.2333 74.6391 42.5C73.9724 41.7667 73.6391 41 73.6391 40.2C73.6391 38.3333 74.6724 37.4 76.7391 37.4C78.7391 37.4 79.7391 38.3667 79.7391 40.3C79.7391 42.5 78.7724 43.6 76.8391 43.6ZM75.5391 74.8C73.2724 74.8 71.3724 74.0333 69.8391 72.5C68.3724 70.9 67.6391 68.6 67.6391 65.6C67.6391 61.9333 68.6391 58.2 70.6391 54.4C71.3724 53 72.6391 52.3 74.4391 52.3C75.5057 52.3 76.0391 52.6333 76.0391 53.3C76.0391 53.5 75.9391 53.8 75.7391 54.2C73.4057 58.6667 72.2391 62.5 72.2391 65.7C72.2391 68.0333 72.6391 69.7333 73.4391 70.8C74.3057 71.8667 75.4724 72.4 76.9391 72.4C79.2724 72.4 81.6057 71.5333 83.9391 69.8C86.2724 68 88.5391 65.8333 90.7391 63.3C90.9391 62.9667 91.2391 62.8 91.6391 62.8C91.9057 62.8 92.0391 62.9333 92.0391 63.2C92.0391 63.4 91.9057 63.7 91.6391 64.1C91.4391 64.4333 91.2391 64.7667 91.0391 65.1C90.1724 66.2333 89.1391 67.4 87.9391 68.6C86.7391 69.8 85.3391 70.9333 83.7391 72C82.4724 72.8667 81.1057 73.5333 79.6391 74C78.2391 74.5333 76.8724 74.8 75.5391 74.8ZM105.686 75.5C105.086 75.5 104.619 75 104.286 74V72.1C104.286 63.8333 103.219 59.7 101.086 59.7C99.6859 59.7 97.5526 61.9667 94.6859 66.5C93.8859 67.7 93.0859 68.9 92.2859 70.1C91.5526 71.3 90.8193 72.5 90.0859 73.7C89.6859 73.8333 89.3859 73.9 89.1859 73.9C88.5193 73.9 88.1859 73.4 88.1859 72.4V72.1L89.3859 68.1C90.7859 63.9 91.8193 60.5667 92.4859 58.1C93.1526 55.5667 93.4859 53.9 93.4859 53.1C93.4859 52.8333 93.4526 52.6667 93.3859 52.6C94.7193 51.4 95.9859 50.8 97.1859 50.8C97.7859 50.8 98.0193 50.9667 97.8859 51.3L96.0859 61.4C96.7526 60.4667 98.1193 59.3 100.186 57.9C101.253 57.1667 102.153 56.6333 102.886 56.3C103.686 55.9667 104.319 55.8 104.786 55.8C106.853 55.8 108.019 59.9667 108.286 68.3C109.019 66.9667 109.986 65.3 111.186 63.3C112.453 61.3 113.919 59 115.586 56.4C116.519 55.1333 117.519 54.5 118.586 54.5C119.586 54.5 120.186 55.1333 120.386 56.4C120.586 59 120.786 61.4333 120.986 63.7C121.186 65.9 121.619 67.6667 122.286 69C122.953 70.3333 124.086 71.0333 125.686 71.1C127.686 71.1 129.653 70.3667 131.586 68.9C133.586 67.3667 135.386 65.5333 136.986 63.4C137.319 62.8667 137.653 62.6 137.986 62.6C138.186 62.6 138.286 62.8667 138.286 63.4C138.286 63.5333 138.153 63.8333 137.886 64.3C137.619 64.7 137.419 64.9667 137.286 65.1C136.153 66.7667 134.819 68.4 133.286 70C131.819 71.5333 130.253 72.8 128.586 73.8C126.919 74.7333 125.253 75.2 123.586 75.2C121.119 75.2 119.319 73.8667 118.186 71.2C117.053 68.5333 116.353 64.7667 116.086 59.9C114.686 61.1667 113.186 63.4333 111.586 66.7C110.586 68.5667 109.753 70.1333 109.086 71.4C108.419 72.6 107.919 73.4667 107.586 74C106.919 75 106.286 75.5 105.686 75.5ZM146.877 74.8C144.144 74.8 141.777 74.0333 139.777 72.5C137.844 70.9 136.877 68.5 136.877 65.3C136.877 61.7667 138.044 58.1333 140.377 54.4C141.577 52.4667 143.044 50.9333 144.777 49.8C146.511 48.6 148.044 48 149.377 48C151.311 48 152.277 49.1667 152.277 51.5C152.277 53.5 150.944 55.9333 148.277 58.8C145.811 61.3333 143.477 63.0667 141.277 64C141.211 64.2667 141.144 64.5667 141.077 64.9C141.077 65.1667 141.077 65.4667 141.077 65.8C141.077 70 143.577 72.1 148.577 72.1C151.444 72.1 154.111 71.2333 156.577 69.5C159.111 67.7 161.311 65.6667 163.177 63.4C163.511 63 163.811 62.8 164.077 62.8C164.344 62.8 164.477 62.9333 164.477 63.2C164.477 63.4667 164.344 63.8333 164.077 64.3C163.811 64.7 163.611 64.9667 163.477 65.1C162.411 66.5667 161.277 67.8667 160.077 69C158.944 70.1333 157.411 71.2333 155.477 72.3C154.077 73.1667 152.611 73.8 151.077 74.2C149.611 74.6 148.211 74.8 146.877 74.8ZM141.677 61.9C142.544 61.4333 143.377 60.9 144.177 60.3C145.044 59.6333 145.877 58.8667 146.677 58C148.477 55.8667 149.377 54 149.377 52.4C149.377 51.4 149.077 50.9 148.477 50.9C147.944 50.9 147.244 51.3667 146.377 52.3C145.577 53.1667 144.811 54.2667 144.077 55.6C142.811 58.2 142.011 60.3 141.677 61.9ZM214.749 87.4C214.549 87.4 214.416 87.1667 214.349 86.7C214.349 86.4333 214.383 85.9667 214.449 85.3C214.583 84.7 214.716 83.9333 214.849 83C215.183 80.4667 215.649 77.8667 216.249 75.2C216.849 72.6 217.516 69.9 218.249 67.1C217.316 66.3667 216.416 65.7 215.549 65.1C214.749 64.5 213.983 63.9667 213.249 63.5C207.383 73.1667 200.383 78 192.249 78C190.916 78 189.549 77.8667 188.149 77.6C186.816 77.4 185.383 77.0667 183.849 76.6C182.716 76.2 182.149 75.8 182.149 75.4C182.149 75.2 182.349 75.1 182.749 75.1C182.949 75.1 183.316 75.1667 183.849 75.3C186.449 76.1 188.949 76.5 191.349 76.5C199.016 76.5 205.349 71.4667 210.349 61.4C204.016 57.0667 198.383 53.7 193.449 51.3C189.449 49.3667 185.316 48.4 181.049 48.4C171.983 48.4 166.283 51.7333 163.949 58.4C163.483 59.7333 163.249 61.1 163.249 62.5C163.249 66.3667 164.849 70.0667 168.049 73.6C170.983 76.8 173.916 78.7 176.849 79.3C177.583 79.4333 177.949 79.6667 177.949 80C177.949 80.4667 177.516 80.7 176.649 80.7C176.516 80.7 176.316 80.7 176.049 80.7C175.849 80.7 175.616 80.6667 175.349 80.6C172.016 80 168.949 78.3 166.149 75.5C163.083 72.2333 161.549 68.4667 161.549 64.2C161.549 62.0667 161.949 59.8667 162.749 57.6C164.349 53.2667 167.116 49.9333 171.049 47.6C174.783 45.2667 179.049 44.1 183.849 44.1C187.649 44.1 191.383 44.8667 195.049 46.4C200.183 48.4667 205.983 51.9333 212.449 56.8C212.783 56.1333 213.149 55.3 213.549 54.3C213.949 53.2333 214.449 52 215.049 50.6L216.449 47.4C212.249 46.5333 208.316 44.8667 204.649 42.4C198.449 38.2 195.349 33 195.349 26.8C195.349 24 196.049 21.6667 197.449 19.8C198.916 17.9333 200.849 17 203.249 17C204.916 17 206.416 17.5 207.749 18.5C209.083 19.5 209.749 20.8 209.749 22.4V22.7C209.749 23.7 209.283 24.2 208.349 24.2C207.016 24.2 206.316 23.5333 206.249 22.2C205.716 21.2667 204.749 20.8 203.349 20.8C203.083 20.8 202.849 20.8333 202.649 20.9C202.449 20.9 202.216 20.9333 201.949 21C198.549 21.6667 196.849 23.6333 196.849 26.9C196.849 32.5667 199.616 37.3667 205.149 41.3C208.549 43.7667 212.516 45.2667 217.049 45.8C225.116 26.4 232.649 13.9333 239.649 8.4C243.583 5.26667 247.416 3.7 251.149 3.7C254.483 3.7 257.216 4.96667 259.349 7.5C261.483 9.96666 262.549 13.0667 262.549 16.8C262.549 22.2 260.516 27.2667 256.449 32C248.383 41.6 238.349 46.9 226.349 47.9L224.249 53.3C224.583 53.4333 225.083 53.6333 225.749 53.9C226.483 54.1667 226.883 54.4667 226.949 54.8C227.016 55 225.483 56.3667 222.349 58.9L222.249 58.8C221.983 59.5333 221.716 60.3 221.449 61.1C221.249 61.9 221.016 62.6667 220.749 63.4C225.549 67.2667 229.849 70.5 233.649 73.1C237.449 75.6333 240.749 77.6 243.549 79C245.883 80.0667 248.449 80.6 251.249 80.6C253.116 80.6 254.849 80.3667 256.449 79.9C258.049 79.5 259.549 78.8333 260.949 77.9C263.749 76.1 265.149 73.7667 265.149 70.9C265.149 70.5667 265.083 70.1 264.949 69.5C264.816 68.8333 264.749 68.3333 264.749 68C264.749 67.4667 264.916 67.2 265.249 67.2C266.049 67.2 266.449 68.6333 266.449 71.5C266.449 74.9 264.916 77.7 261.849 79.9C258.783 82.1 254.949 83.2 250.349 83.2C246.083 83.2 241.983 82.1667 238.049 80.1C236.316 79.2333 233.883 77.7667 230.749 75.7C227.683 73.7 223.883 71.1 219.349 67.9C218.283 71.4333 217.416 74.7333 216.749 77.8C216.083 80.9333 215.583 83.8667 215.249 86.6C215.116 87.1333 214.949 87.4 214.749 87.4ZM221.449 46C222.183 45.9333 222.916 45.8667 223.649 45.8C224.383 45.7333 225.083 45.6667 225.749 45.6C227.083 42.5333 228.483 39.3667 229.949 36.1C231.483 32.8333 233.083 29.5333 234.749 26.2C240.216 15.7333 243.949 10.4333 245.949 10.3C246.416 10.3 246.649 10.5333 246.649 11C246.649 11.2667 246.516 11.5 246.249 11.7C243.983 13.5 241.249 17.2 238.049 22.8C234.916 28.4 231.383 35.9 227.449 45.3C238.449 43.1 247.349 37.7333 254.149 29.2C257.949 24.4667 259.849 19.8 259.849 15.2C259.849 12.2667 259.083 9.86666 257.549 8C256.083 6.13333 254.083 5.2 251.549 5.2C248.283 5.2 244.749 6.86666 240.949 10.2C237.149 13.4667 233.483 18.6667 229.949 25.8C229.283 27.2 228.216 29.6 226.749 33C225.349 36.3333 223.583 40.6667 221.449 46ZM219.649 62.5L221.149 57.9C220.749 57.5 220.483 57.1 220.349 56.7C220.216 56.3 220.116 55.9667 220.049 55.7C220.049 55.1667 220.349 54.3667 220.949 53.3C221.616 52.1667 222.383 51.6 223.249 51.6H223.349C223.616 51.0667 223.849 50.5 224.049 49.9C224.316 49.2333 224.583 48.5667 224.849 47.9C223.383 47.9667 221.983 47.9667 220.649 47.9C219.716 50.1667 218.816 52.2667 217.949 54.2C217.083 56.0667 216.283 57.7667 215.549 59.3C216.083 59.6333 216.683 60.0667 217.349 60.6C218.016 61.1333 218.783 61.7667 219.649 62.5ZM266.39 43.6C265.59 43.6 264.857 43.2333 264.19 42.5C263.523 41.7667 263.19 41 263.19 40.2C263.19 38.3333 264.223 37.4 266.29 37.4C268.29 37.4 269.29 38.3667 269.29 40.3C269.29 42.5 268.323 43.6 266.39 43.6ZM265.09 74.8C262.823 74.8 260.923 74.0333 259.39 72.5C257.923 70.9 257.19 68.6 257.19 65.6C257.19 61.9333 258.19 58.2 260.19 54.4C260.923 53 262.19 52.3 263.99 52.3C265.057 52.3 265.59 52.6333 265.59 53.3C265.59 53.5 265.49 53.8 265.29 54.2C262.957 58.6667 261.79 62.5 261.79 65.7C261.79 68.0333 262.19 69.7333 262.99 70.8C263.857 71.8667 265.023 72.4 266.49 72.4C268.823 72.4 271.157 71.5333 273.49 69.8C275.823 68 278.09 65.8333 280.29 63.3C280.49 62.9667 280.79 62.8 281.19 62.8C281.457 62.8 281.59 62.9333 281.59 63.2C281.59 63.4 281.457 63.7 281.19 64.1C280.99 64.4333 280.79 64.7667 280.59 65.1C279.723 66.2333 278.69 67.4 277.49 68.6C276.29 69.8 274.89 70.9333 273.29 72C272.023 72.8667 270.657 73.5333 269.19 74C267.79 74.5333 266.423 74.8 265.09 74.8ZM279.837 74.9C279.37 74.9 278.87 74.6 278.337 74C277.87 73.4 277.637 72.8667 277.637 72.4V72.1L278.537 70.4C279.07 68.8667 279.603 67.0333 280.137 64.9C280.67 62.7 281.17 60.2 281.637 57.4C281.703 56.7333 281.803 56.0333 281.937 55.3C282.07 54.5 282.203 53.6 282.337 52.6C282.67 51.2667 283.703 50.6 285.437 50.6C285.97 50.6 286.237 50.8 286.237 51.2C286.237 51.3333 286.17 51.8 286.037 52.6C285.903 53.4 285.703 54.5 285.437 55.9C285.17 57.4333 284.837 59.1 284.437 60.9C284.103 62.7 283.703 64.6333 283.237 66.7L287.937 58.8C290.27 54.8667 292.237 52.9 293.837 52.9C294.837 52.9 295.37 53.5 295.437 54.7C295.637 57.5 295.77 60.2667 295.837 63C295.97 65.7333 296.337 68 296.937 69.8C297.603 71.6 298.77 72.5 300.437 72.5C301.57 72.5 302.67 72.2667 303.737 71.8C304.87 71.3333 306.137 70.4667 307.537 69.2C308.937 67.8667 310.603 65.9333 312.537 63.4C312.603 63.2667 312.737 63.1 312.937 62.9C313.137 62.7 313.37 62.6 313.637 62.6C313.903 62.6 314.037 62.7333 314.037 63C314.037 63.2667 313.87 63.6333 313.537 64.1C313.27 64.5667 313.07 64.9 312.937 65.1C311.137 67.7667 309.103 70 306.837 71.8C304.57 73.6 302.437 74.5 300.437 74.5C297.503 74.5 295.337 73.0333 293.937 70.1C292.603 67.1 291.67 62.8667 291.137 57.4C290.07 58.5333 288.803 60.2333 287.337 62.5C285.937 64.7667 284.303 67.6667 282.437 71.2C282.303 71.5333 282.103 71.9333 281.837 72.4C281.57 72.8 281.27 73.3333 280.937 74C280.67 74.6 280.303 74.9 279.837 74.9ZM322.561 74.8C319.828 74.8 317.461 74.0333 315.461 72.5C313.528 70.9 312.561 68.5 312.561 65.3C312.561 61.7667 313.728 58.1333 316.061 54.4C317.261 52.4667 318.728 50.9333 320.461 49.8C322.194 48.6 323.728 48 325.061 48C326.994 48 327.961 49.1667 327.961 51.5C327.961 53.5 326.628 55.9333 323.961 58.8C321.494 61.3333 319.161 63.0667 316.961 64C316.894 64.2667 316.828 64.5667 316.761 64.9C316.761 65.1667 316.761 65.4667 316.761 65.8C316.761 70 319.261 72.1 324.261 72.1C327.128 72.1 329.794 71.2333 332.261 69.5C334.794 67.7 336.994 65.6667 338.861 63.4C339.194 63 339.494 62.8 339.761 62.8C340.028 62.8 340.161 62.9333 340.161 63.2C340.161 63.4667 340.028 63.8333 339.761 64.3C339.494 64.7 339.294 64.9667 339.161 65.1C338.094 66.5667 336.961 67.8667 335.761 69C334.628 70.1333 333.094 71.2333 331.161 72.3C329.761 73.1667 328.294 73.8 326.761 74.2C325.294 74.6 323.894 74.8 322.561 74.8ZM317.361 61.9C318.228 61.4333 319.061 60.9 319.861 60.3C320.728 59.6333 321.561 58.8667 322.361 58C324.161 55.8667 325.061 54 325.061 52.4C325.061 51.4 324.761 50.9 324.161 50.9C323.628 50.9 322.928 51.3667 322.061 52.3C321.261 53.1667 320.494 54.2667 319.761 55.6C318.494 58.2 317.694 60.3 317.361 61.9Z" fill="white"/>
</svg>
